<svg width="25" height="25" viewBox="0 0 25 25" fill="none" xmlns="http://www.w3.org/2000/svg">
<path d="M1.79874 24.8749L24.2187 13.854C24.4505 13.7407 24.6481 13.5519 24.787 13.3109C24.9259 13.0699 25 12.7873 25 12.4985C25 12.2096 24.9259 11.927 24.787 11.686C24.6481 11.445 24.4505 11.2562 24.2187 11.1429L1.79874 0.122016C1.6046 0.0249118 1.39244 -0.0152405 1.18139 0.00518109C0.97035 0.0256026 0.767055 0.105955 0.589855 0.238991C0.412655 0.372027 0.267123 0.55356 0.166389 0.767215C0.065655 0.980865 0.0128879 1.21991 0.0128481 1.4628L0 8.2551C0 8.9918 0.47538 9.62535 1.11778 9.71375L19.2722 12.4985L1.11778 15.2684C0.47538 15.3716 0 16.0051 0 16.7418L0.0128481 23.5341C0.0128481 24.5802 0.95076 25.3022 1.79874 24.8749Z" fill="white"/>
</svg>
